<svg xmlns="http://www.w3.org/2000/svg" viewBox="0 0 32 32" width="32" height="32">
  <defs>
    <linearGradient id="bg" x1="0%" y1="0%" x2="100%" y2="100%">
      <stop offset="0%" style="stop-color:#3b82f6;stop-opacity:1" />
      <stop offset="100%" style="stop-color:#1d4ed8;stop-opacity:1" />
    </linearGradient>
    <linearGradient id="text" x1="0%" y1="0%" x2="100%" y2="100%">
      <stop offset="0%" style="stop-color:#ffffff;stop-opacity:1" />
      <stop offset="100%" style="stop-color:#f0f9ff;stop-opacity:1" />
    </linearGradient>
    <filter id="shadow" x="-50%" y="-50%" width="200%" height="200%">
      <feDropShadow dx="0.125" dy="0.25" stdDeviation="0.18823529411764706" flood-color="#000000" flood-opacity="0.3"/>
    </filter>
  </defs>
  
  <rect width="32" height="32" rx="5" ry="5" fill="url(#bg)"/>
  
  <circle cx="16" cy="16" r="12.5" fill="none" stroke="rgba(255,255,255,0.1)" stroke-width="0.125"/>
  
  <text x="16" y="12.48" font-family="Arial, sans-serif" font-size="4.992" font-weight="bold" 
        text-anchor="middle" fill="url(#text)" filter="url(#shadow)">La</text>
  
  <text x="16" y="17.504" font-family="Arial, sans-serif" font-size="3.744" font-weight="300" 
        text-anchor="middle" fill="url(#text)" filter="url(#shadow)">IA</text>
  
  <g transform="translate(16, 20)" fill="url(#text)" filter="url(#shadow)">
    <path d="M-1.248,-0.624 L-1.248,1.8752 M-1.568,-0.624 L-1.568,0 M-0.928,-0.624 L-0.928,0 M-1.248,0 L-1.248,-0.928" 
          stroke="url(#text)" stroke-width="0.1888" fill="none" stroke-linecap="round"/>
    
    <path d="M1.248,-0.624 L1.248,1.8752 M0.928,-0.624 L1.568,-0.3136 L1.248,0" 
          stroke="url(#text)" stroke-width="0.1888" fill="none" stroke-linecap="round"/>
    
    <ellipse cx="0" cy="2.496" rx="1.8752" ry="0.4992" fill="none" stroke="url(#text)" stroke-width="0.1248"/>
  </g>
  
  <path d="M 4.992,4.992 Q 11.264,7.488 17.504,4.992 Q 23.744,7.488 30.016,4.992 L 30.016,7.488 Q 23.744,10.016 17.504,7.488 Q 11.264,10.016 4.992,7.488 Z" 
        fill="rgba(255,255,255,0.1)"/>
</svg>