<svg xmlns="http://www.w3.org/2000/svg" viewBox="0 0 384 384" width="384" height="384">
  <defs>
    <linearGradient id="bg" x1="0%" y1="0%" x2="100%" y2="100%">
      <stop offset="0%" style="stop-color:#3b82f6;stop-opacity:1" />
      <stop offset="100%" style="stop-color:#1d4ed8;stop-opacity:1" />
    </linearGradient>
    <linearGradient id="text" x1="0%" y1="0%" x2="100%" y2="100%">
      <stop offset="0%" style="stop-color:#ffffff;stop-opacity:1" />
      <stop offset="100%" style="stop-color:#f0f9ff;stop-opacity:1" />
    </linearGradient>
    <filter id="shadow" x="-50%" y="-50%" width="200%" height="200%">
      <feDropShadow dx="1.5" dy="3" stdDeviation="2.2588235294117647" flood-color="#000000" flood-opacity="0.3"/>
    </filter>
  </defs>
  
  <rect width="384" height="384" rx="60" ry="60" fill="url(#bg)"/>
  
  <circle cx="192" cy="192" r="150" fill="none" stroke="rgba(255,255,255,0.1)" stroke-width="1.5"/>
  
  <text x="192" y="149.76" font-family="Arial, sans-serif" font-size="59.903999999999996" font-weight="bold" 
        text-anchor="middle" fill="url(#text)" filter="url(#shadow)">La</text>
  
  <text x="192" y="210.048" font-family="Arial, sans-serif" font-size="44.928000000000004" font-weight="300" 
        text-anchor="middle" fill="url(#text)" filter="url(#shadow)">IA</text>
  
  <g transform="translate(192, 240)" fill="url(#text)" filter="url(#shadow)">
    <path d="M-14.975999999999999,-7.4879999999999995 L-14.975999999999999,22.5024 M-18.816000000000003,-7.4879999999999995 L-18.816000000000003,0 M-11.136000000000001,-7.4879999999999995 L-11.136000000000001,0 M-14.975999999999999,0 L-14.975999999999999,-11.136000000000001" 
          stroke="url(#text)" stroke-width="2.2656" fill="none" stroke-linecap="round"/>
    
    <path d="M14.975999999999999,-7.4879999999999995 L14.975999999999999,22.5024 M11.136000000000001,-7.4879999999999995 L18.816000000000003,-3.7632 L14.975999999999999,0" 
          stroke="url(#text)" stroke-width="2.2656" fill="none" stroke-linecap="round"/>
    
    <ellipse cx="0" cy="29.951999999999998" rx="22.5024" ry="5.990399999999999" fill="none" stroke="url(#text)" stroke-width="1.4975999999999998"/>
  </g>
  
  <path d="M 59.903999999999996,59.903999999999996 Q 135.168,89.85600000000001 210.048,59.903999999999996 Q 284.928,89.85600000000001 360.192,59.903999999999996 L 360.192,89.85600000000001 Q 284.928,120.19200000000001 210.048,89.85600000000001 Q 135.168,120.19200000000001 59.903999999999996,89.85600000000001 Z" 
        fill="rgba(255,255,255,0.1)"/>
</svg>