<svg xmlns="http://www.w3.org/2000/svg" viewBox="0 0 512 512" width="512" height="512">
  <defs>
    <linearGradient id="bg" x1="0%" y1="0%" x2="100%" y2="100%">
      <stop offset="0%" style="stop-color:#3b82f6;stop-opacity:1" />
      <stop offset="100%" style="stop-color:#1d4ed8;stop-opacity:1" />
    </linearGradient>
    <linearGradient id="text" x1="0%" y1="0%" x2="100%" y2="100%">
      <stop offset="0%" style="stop-color:#ffffff;stop-opacity:1" />
      <stop offset="100%" style="stop-color:#f0f9ff;stop-opacity:1" />
    </linearGradient>
    <filter id="shadow" x="-50%" y="-50%" width="200%" height="200%">
      <feDropShadow dx="2" dy="4" stdDeviation="3.011764705882353" flood-color="#000000" flood-opacity="0.3"/>
    </filter>
  </defs>
  
  <rect width="512" height="512" rx="80" ry="80" fill="url(#bg)"/>
  
  <circle cx="256" cy="256" r="200" fill="none" stroke="rgba(255,255,255,0.1)" stroke-width="2"/>
  
  <text x="256" y="199.68" font-family="Arial, sans-serif" font-size="79.872" font-weight="bold" 
        text-anchor="middle" fill="url(#text)" filter="url(#shadow)">La</text>
  
  <text x="256" y="280.064" font-family="Arial, sans-serif" font-size="59.904" font-weight="300" 
        text-anchor="middle" fill="url(#text)" filter="url(#shadow)">IA</text>
  
  <g transform="translate(256, 320)" fill="url(#text)" filter="url(#shadow)">
    <path d="M-19.968,-9.984 L-19.968,30.0032 M-25.088,-9.984 L-25.088,0 M-14.848,-9.984 L-14.848,0 M-19.968,0 L-19.968,-14.848" 
          stroke="url(#text)" stroke-width="3.0208" fill="none" stroke-linecap="round"/>
    
    <path d="M19.968,-9.984 L19.968,30.0032 M14.848,-9.984 L25.088,-5.0176 L19.968,0" 
          stroke="url(#text)" stroke-width="3.0208" fill="none" stroke-linecap="round"/>
    
    <ellipse cx="0" cy="39.936" rx="30.0032" ry="7.9872" fill="none" stroke="url(#text)" stroke-width="1.9968"/>
  </g>
  
  <path d="M 79.872,79.872 Q 180.224,119.808 280.064,79.872 Q 379.904,119.808 480.256,79.872 L 480.256,119.808 Q 379.904,160.256 280.064,119.808 Q 180.224,160.256 79.872,119.808 Z" 
        fill="rgba(255,255,255,0.1)"/>
</svg>